<mxfile host="app.diagrams.net" modified="2022-07-07T10:40:33.336Z" agent="5.0 (Windows NT 10.0; Win64; x64) AppleWebKit/537.36 (KHTML, like Gecko) Chrome/102.0.0.0 Safari/537.36" etag="9cRx1aSza6m0wsGMcM9p" version="20.0.4" type="github">
  <diagram id="hpvqqFq_v_p_thIel57g" name="第 1 页">
    <mxGraphModel dx="1422" dy="786" grid="1" gridSize="10" guides="1" tooltips="1" connect="1" arrows="1" fold="1" page="1" pageScale="1" pageWidth="1654" pageHeight="2336" math="0" shadow="0">
      <root>
        <mxCell id="0" />
        <mxCell id="1" parent="0" />
        <mxCell id="zwQavoFQW24ZlYIbycaL-37" value="" style="rounded=0;whiteSpace=wrap;html=1;" vertex="1" parent="1">
          <mxGeometry x="360" y="720" width="240" height="400" as="geometry" />
        </mxCell>
        <mxCell id="zwQavoFQW24ZlYIbycaL-38" value="" style="rounded=0;whiteSpace=wrap;html=1;" vertex="1" parent="1">
          <mxGeometry x="720" y="720" width="240" height="400" as="geometry" />
        </mxCell>
        <mxCell id="zwQavoFQW24ZlYIbycaL-39" value="前端" style="text;html=1;align=center;verticalAlign=middle;resizable=0;points=[];autosize=1;strokeColor=none;fillColor=none;" vertex="1" parent="1">
          <mxGeometry x="450" y="1090" width="50" height="30" as="geometry" />
        </mxCell>
        <mxCell id="zwQavoFQW24ZlYIbycaL-40" value="后端" style="text;html=1;align=center;verticalAlign=middle;resizable=0;points=[];autosize=1;strokeColor=none;fillColor=none;" vertex="1" parent="1">
          <mxGeometry x="815" y="1090" width="50" height="30" as="geometry" />
        </mxCell>
      </root>
    </mxGraphModel>
  </diagram>
</mxfile>
